<svg xmlns="http://www.w3.org/2000/svg" width="1300" height="896" fill="inherit"><path d="M-218.72 116.72c-1.21 1.21-.35 3.28 1.36 3.28H-30c17.67 0 32-14.33 32-32s-14.33-32-32-32h-160c-17.67 0-32 14.33-32 32 0 8.84 3.58 16.84 9.37 22.63l-6.09 6.09ZM261.28 276.72c-1.21 1.21-.35 3.28 1.36 3.28H370c17.67 0 32-14.33 32-32s-14.33-32-32-32h-80c-17.67 0-32 14.33-32 32 0 8.84 3.58 16.84 9.37 22.63l-6.09 6.09ZM211 136h-80c-17.67 0-32 14.33-32 32 0 8.84 3.58 16.84 9.37 22.63l-6.09 6.09c-1.21 1.21-.35 3.28 1.36 3.28H211c17.67 0 32-14.33 32-32s-14.33-32-32-32ZM22.64 360H130c17.67 0 32-14.33 32-32v-80c0-17.67-14.33-32-32-32H50c-17.67 0-32 14.33-32 32v80c0 8.84 3.58 16.84 9.37 22.63l-6.09 6.09c-1.21 1.21-.35 3.28 1.36 3.28ZM2 408v-80c0-17.67-14.33-32-32-32h-160c-17.67 0-32 14.33-32 32v80c0 8.84 3.58 16.84 9.37 22.63l-6.09 6.09c-1.21 1.21-.35 3.28 1.36 3.28H-30c17.67 0 32-14.33 32-32ZM642 88c0-17.67-14.33-32-32-32s-32 14.33-32 32c0 8.84 3.58 16.84 9.37 22.63l-6.09 6.09c-1.21 1.21-.35 3.28 1.36 3.28H610c17.67 0 32-14.33 32-32ZM581.28 36.72c-1.21 1.21-.35 3.28 1.36 3.28H770c17.67 0 32-14.33 32-32s-14.33-32-32-32H610c-17.67 0-32 14.33-32 32 0 8.84 3.58 16.84 9.37 22.63l-6.09 6.09ZM421.28 436.72c-1.21 1.21-.35 3.28 1.36 3.28H610c17.67 0 32-14.33 32-32s-14.33-32-32-32H450c-17.67 0-32 14.33-32 32 0 8.84 3.58 16.84 9.37 22.63l-6.09 6.09ZM821.28 116.72c-1.21 1.21-.35 3.28 1.36 3.28H1010c17.67 0 32-14.33 32-32s-14.33-32-32-32H850c-17.67 0-32 14.33-32 32 0 8.84 3.58 16.84 9.37 22.63l-6.09 6.09ZM1061.28 356.72c-1.21 1.21-.35 3.28 1.36 3.28H1170c17.67 0 32-14.33 32-32s-14.33-32-32-32h-80c-17.67 0-32 14.33-32 32 0 8.84 3.58 16.84 9.37 22.63l-6.09 6.09ZM821.28 196.72c-1.21 1.21-.35 3.28 1.36 3.28H930c17.67 0 32-14.33 32-32s-14.33-32-32-32h-80c-17.67 0-32 14.33-32 32 0 8.84 3.58 16.84 9.37 22.63l-6.09 6.09ZM902.64 360H1010c17.67 0 32-14.33 32-32v-80c0-17.67-14.33-32-32-32h-80c-17.67 0-32 14.33-32 32v80c0 8.84 3.58 16.84 9.37 22.63l-6.09 6.09c-1.21 1.21-.35 3.28 1.36 3.28ZM1061.28 116.72c-1.21 1.21-.35 3.28 1.36 3.28H1250c17.67 0 32-14.33 32-32V8c0-17.67-14.33-32-32-32h-160c-17.67 0-32 14.33-32 32v80c0 8.84 3.58 16.84 9.37 22.63l-6.09 6.09ZM722 248v-80c0-17.67-14.33-32-32-32h-80c-17.67 0-32 14.33-32 32v80c0 8.84 3.58 16.84 9.37 22.63l-6.09 6.09c-1.21 1.21-.35 3.28 1.36 3.28H690c17.67 0 32-14.33 32-32ZM981.28 36.72c-1.21 1.21-.35 3.28 1.36 3.28H1010c17.67 0 32-14.33 32-32s-14.33-32-32-32-32 14.33-32 32c0 8.84 3.58 16.84 9.37 22.63l-6.09 6.09ZM742.64 520H770c17.67 0 32-14.33 32-32s-14.33-32-32-32-32 14.33-32 32c0 8.84 3.58 16.84 9.37 22.63l-6.09 6.09c-1.21 1.21-.35 3.28 1.36 3.28ZM181.28 436.72c-1.21 1.21-.35 3.28 1.36 3.28H210c17.67 0 32-14.33 32-32s-14.33-32-32-32-32 14.33-32 32c0 8.84 3.58 16.84 9.37 22.63l-6.09 6.09ZM902.64 680H930c17.67 0 32-14.33 32-32s-14.33-32-32-32-32 14.33-32 32c0 8.84 3.58 16.84 9.37 22.63l-6.09 6.09c-1.21 1.21-.35 3.28 1.36 3.28ZM1010 776c-17.67 0-32 14.33-32 32 0 8.84 3.58 16.84 9.37 22.63l-6.09 6.09c-1.21 1.21-.35 3.28 1.36 3.28H1010c17.67 0 32-14.33 32-32s-14.33-32-32-32ZM982.64 680H1170c17.67 0 32-14.33 32-32s-14.33-32-32-32h-160c-17.67 0-32 14.33-32 32 0 8.84 3.58 16.84 9.37 22.63l-6.09 6.09c-1.21 1.21-.35 3.28 1.36 3.28ZM343.64 760H531c17.67 0 32-14.33 32-32s-14.33-32-32-32H371c-17.67 0-32 14.33-32 32 0 8.84 3.58 16.84 9.37 22.63l-6.09 6.09c-1.21 1.21-.35 3.28 1.36 3.28ZM1142.64 760H1330c17.67 0 32-14.33 32-32s-14.33-32-32-32h-160c-17.67 0-32 14.33-32 32 0 8.84 3.58 16.84 9.37 22.63l-6.09 6.09c-1.21 1.21-.35 3.28 1.36 3.28ZM821.28 516.72c-1.21 1.21-.35 3.28 1.36 3.28H1010c17.67 0 32-14.33 32-32s-14.33-32-32-32H850c-17.67 0-32 14.33-32 32 0 8.84 3.58 16.84 9.37 22.63l-6.09 6.09ZM1283 408c0-17.67-14.33-32-32-32h-80c-17.67 0-32 14.33-32 32 0 8.84 3.58 16.84 9.37 22.63l-6.09 6.09c-1.21 1.21-.35 3.28 1.36 3.28H1251c17.67 0 32-14.33 32-32ZM882 248c0-17.67-14.33-32-32-32h-80c-17.67 0-32 14.33-32 32 0 8.84 3.58 16.84 9.37 22.63l-6.09 6.09c-1.21 1.21-.35 3.28 1.36 3.28H850c17.67 0 32-14.33 32-32ZM1302.64 920H1410c17.67 0 32-14.33 32-32s-14.33-32-32-32h-80c-17.67 0-32 14.33-32 32 0 8.84 3.58 16.84 9.37 22.63l-6.09 6.09c-1.21 1.21-.35 3.28 1.36 3.28ZM403 488v-80c0-17.67-14.33-32-32-32h-80c-17.67 0-32 14.33-32 32v80c0 8.84 3.58 16.84 9.37 22.63l-6.09 6.09c-1.21 1.21-.35 3.28 1.36 3.28H371c17.67 0 32-14.33 32-32ZM1202 888v-80c0-17.67-14.33-32-32-32h-80c-17.67 0-32 14.33-32 32v80c0 8.84 3.58 16.84 9.37 22.63l-6.09 6.09c-1.21 1.21-.35 3.28 1.36 3.28H1170c17.67 0 32-14.33 32-32ZM1010 856H850c-17.67 0-32 14.33-32 32v80c0 8.84 3.58 16.84 9.37 22.63l-6.1 6.09c-1.21 1.21-.35 3.28 1.36 3.28h187.36c17.67 0 32-14.33 32-32v-80c0-17.67-14.33-32-32-32h.01ZM1222.64 680H1410c17.67 0 32-14.33 32-32v-80c0-17.67-14.33-32-32-32h-160c-17.67 0-32 14.33-32 32v80c0 8.84 3.58 16.84 9.37 22.63l-6.09 6.09c-1.21 1.21-.35 3.28 1.36 3.28ZM1250 856c-17.67 0-32 14.33-32 32 0 8.84 3.58 16.84 9.37 22.63l-6.09 6.09c-1.21 1.21-.35 3.28 1.36 3.28H1250c17.67 0 32-14.33 32-32s-14.33-32-32-32ZM371 857c-17.67 0-32 14.33-32 32 0 8.84 3.58 16.84 9.37 22.63l-6.09 6.09c-1.21 1.21-.35 3.28 1.36 3.28H371c17.67 0 32-14.33 32-32s-14.33-32-32-32ZM771 696c-17.67 0-32 14.33-32 32 0 8.84 3.58 16.84 9.37 22.63l-6.09 6.09c-1.21 1.21-.35 3.28 1.36 3.28H771c17.67 0 32-14.33 32-32s-14.33-32-32-32ZM103.64 680H291c17.67 0 32-14.33 32-32s-14.33-32-32-32H131c-17.67 0-32 14.33-32 32 0 8.84 3.58 16.84 9.37 22.63l-6.09 6.09c-1.21 1.21-.35 3.28 1.36 3.28ZM-29 456h-80c-17.67 0-32 14.33-32 32 0 8.84 3.58 16.84 9.37 22.63l-6.09 6.09c-1.21 1.21-.35 3.28 1.36 3.28H-29c17.67 0 32-14.33 32-32s-14.33-32-32-32ZM-56.36 680H51c17.67 0 32-14.33 32-32s-14.33-32-32-32h-80c-17.67 0-32 14.33-32 32 0 8.84 3.58 16.84 9.37 22.63l-6.09 6.09c-1.21 1.21-.35 3.28 1.36 3.28ZM-30 776h-80c-17.67 0-32 14.33-32 32 0 8.84 3.58 16.84 9.37 22.63l-6.09 6.09c-1.21 1.21-.35 3.28 1.36 3.28H-30c17.67 0 32-14.33 32-32s-14.33-32-32-32ZM322 328c0-17.67-14.33-32-32-32h-80c-17.67 0-32 14.33-32 32 0 8.84 3.58 16.84 9.37 22.63l-6.09 6.09c-1.21 1.21-.35 3.28 1.36 3.28H290c17.67 0 32-14.33 32-32ZM563 488c0-17.67-14.33-32-32-32h-80c-17.67 0-32 14.33-32 32 0 8.84 3.58 16.84 9.37 22.63l-6.09 6.09c-1.21 1.21-.35 3.28 1.36 3.28H531c17.67 0 32-14.33 32-32ZM322 728c0-17.67-14.33-32-32-32h-80c-17.67 0-32 14.33-32 32 0 8.84 3.58 16.84 9.37 22.63l-6.09 6.09c-1.21 1.21-.35 3.28 1.36 3.28H290c17.67 0 32-14.33 32-32ZM691 616h-80c-17.67 0-32 14.33-32 32v80c0 8.84 3.58 16.84 9.37 22.63l-6.09 6.09c-1.21 1.21-.35 3.28 1.36 3.28H691c17.67 0 32-14.33 32-32v-80c0-17.67-14.33-32-32-32ZM131 696H51c-17.67 0-32 14.33-32 32v80c0 8.84 3.58 16.84 9.37 22.63l-6.09 6.09c-1.21 1.21-.35 3.28 1.36 3.28H131c17.67 0 32-14.33 32-32v-80c0-17.67-14.33-32-32-32ZM418 88v160c0 8.84 3.58 16.84 9.37 22.63l-6.09 6.09c-1.21 1.21-.35 3.28 1.36 3.28H530c17.67 0 32-14.33 32-32V88c0-17.67-14.33-32-32-32h-80c-17.67 0-32 14.33-32 32ZM503.64 840H531c17.67 0 32-14.33 32-32s-14.33-32-32-32-32 14.33-32 32c0 8.84 3.58 16.84 9.37 22.63l-6.09 6.09c-1.21 1.21-.35 3.28 1.36 3.28ZM262.64 600H290c17.67 0 32-14.33 32-32s-14.33-32-32-32-32 14.33-32 32c0 8.84 3.58 16.84 9.37 22.63l-6.09 6.09c-1.21 1.21-.35 3.28 1.36 3.28ZM450 360h187.36c1.71 0 2.57-2.07 1.36-3.28l-6.09-6.09c5.79-5.79 9.37-13.79 9.37-22.63 0-17.67-14.33-32-32-32H450c-17.67 0-32 14.33-32 32s14.33 32 32 32ZM82 168c0-17.67-14.33-32-32-32h-160c-17.67 0-32 14.33-32 32s14.33 32 32 32H77.36c1.71 0 2.57-2.07 1.36-3.28l-6.09-6.09C78.42 184.84 82 176.84 82 168ZM-30 40H77.36c1.71 0 2.57-2.07 1.36-3.28l-6.09-6.09C78.42 24.84 82 16.84 82 8v-80c0-17.67-14.33-32-32-32h-80c-17.67 0-32 14.33-32 32V8c0 17.67 14.33 32 32 32ZM210 120h187.36c1.71 0 2.57-2.07 1.36-3.28l-6.09-6.09C398.42 104.84 402 96.84 402 88V8c0-17.67-14.33-32-32-32H210c-17.67 0-32 14.33-32 32v80c0 17.67 14.33 32 32 32ZM210 280h27.36c1.71 0 2.57-2.07 1.36-3.28l-6.09-6.09c5.79-5.79 9.37-13.79 9.37-22.63 0-17.67-14.33-32-32-32s-32 14.33-32 32 14.33 32 32 32ZM371 296c-17.67 0-32 14.33-32 32s14.33 32 32 32h27.36c1.71 0 2.57-2.07 1.36-3.28l-6.09-6.09c5.79-5.79 9.37-13.79 9.37-22.63 0-17.67-14.33-32-32-32ZM802 168c0-17.67-14.33-32-32-32s-32 14.33-32 32 14.33 32 32 32h27.36c1.71 0 2.57-2.07 1.36-3.28l-6.09-6.09c5.79-5.79 9.37-13.79 9.37-22.63ZM1010 200h27.36c1.71 0 2.57-2.07 1.36-3.28l-6.09-6.09c5.79-5.79 9.37-13.79 9.37-22.63 0-17.67-14.33-32-32-32s-32 14.33-32 32 14.33 32 32 32ZM850 40h107.36c1.71 0 2.57-2.07 1.36-3.28l-6.09-6.09C958.42 24.84 962 16.84 962 8v-80c0-17.67-14.33-32-32-32h-80c-17.67 0-32 14.33-32 32V8c0 17.67 14.33 32 32 32ZM1410 56h-80c-17.67 0-32 14.33-32 32v80c0 17.67 14.33 32 32 32h107.36c1.71 0 2.57-2.07 1.36-3.28l-6.09-6.09c5.79-5.79 9.37-13.79 9.37-22.63V88c0-17.67-14.33-32-32-32ZM1363 328v-80c0-17.67-14.33-32-32-32h-80c-17.67 0-32 14.33-32 32v80c0 17.67 14.33 32 32 32h107.36c1.71 0 2.57-2.07 1.36-3.28l-6.09-6.09c5.79-5.79 9.37-13.79 9.37-22.63ZM882 408v-80c0-17.67-14.33-32-32-32H690c-17.67 0-32 14.33-32 32v80c0 17.67 14.33 32 32 32h187.36c1.71 0 2.57-2.07 1.36-3.28l-6.09-6.09c5.79-5.79 9.37-13.79 9.37-22.63ZM770 536H610c-17.67 0-32 14.33-32 32s14.33 32 32 32h187.36c1.71 0 2.57-2.07 1.36-3.28l-6.09-6.09c5.79-5.79 9.37-13.79 9.37-22.63 0-17.67-14.33-32-32-32ZM802 808c0-17.67-14.33-32-32-32H610c-17.67 0-32 14.33-32 32s14.33 32 32 32h187.36c1.71 0 2.57-2.07 1.36-3.28l-6.09-6.09c5.79-5.79 9.37-13.79 9.37-22.63ZM1090 440h27.36c1.71 0 2.57-2.07 1.36-3.28l-6.09-6.09c5.79-5.79 9.37-13.79 9.37-22.63 0-17.67-14.33-32-32-32H930c-17.67 0-32 14.33-32 32s14.33 32 32 32h160ZM882 648c0-17.67-14.33-32-32-32h-80c-17.67 0-32 14.33-32 32s14.33 32 32 32h107.36c1.71 0 2.57-2.07 1.36-3.28l-6.09-6.09c5.79-5.79 9.37-13.79 9.37-22.63ZM722 488c0-17.67-14.33-32-32-32h-80c-17.67 0-32 14.33-32 32s14.33 32 32 32h107.36c1.71 0 2.57-2.07 1.36-3.28l-6.09-6.09c5.79-5.79 9.37-13.79 9.37-22.63ZM1058 168c0 17.67 14.33 32 32 32h188.36c1.71 0 2.57-2.07 1.36-3.28l-6.09-6.09c5.79-5.79 9.37-13.79 9.37-22.63 0-17.67-14.33-32-32-32h-161c-17.67 0-32 14.33-32 32ZM1202 568v-80c0-17.67-14.33-32-32-32h-80c-17.67 0-32 14.33-32 32v80c0 17.67 14.33 32 32 32h107.36c1.71 0 2.57-2.07 1.36-3.28l-6.09-6.09c5.79-5.79 9.37-13.79 9.37-22.63ZM930 696h-80c-17.67 0-32 14.33-32 32v80c0 17.67 14.33 32 32 32h107.36c1.71 0 2.57-2.07 1.36-3.28l-6.09-6.09c5.79-5.79 9.37-13.79 9.37-22.63v-80c0-17.67-14.33-32-32-32ZM1042 568c0-17.67-14.33-32-32-32s-32 14.33-32 32 14.33 32 32 32h27.36c1.71 0 2.57-2.07 1.36-3.28l-6.09-6.09c5.79-5.79 9.37-13.79 9.37-22.63ZM1362 409c0-17.67-14.33-32-32-32s-32 14.33-32 32 14.33 32 32 32h27.36c1.71 0 2.57-2.07 1.36-3.28l-6.09-6.09c5.79-5.79 9.37-13.79 9.37-22.63ZM83 488c0-17.67-14.33-32-32-32s-32 14.33-32 32 14.33 32 32 32h27.36c1.71 0 2.57-2.07 1.36-3.28l-6.09-6.09C79.42 504.84 83 496.84 83 488ZM451 840h27.36c1.71 0 2.57-2.07 1.36-3.28l-6.09-6.09c5.79-5.79 9.37-13.79 9.37-22.63 0-17.67-14.33-32-32-32h-80c-17.67 0-32 14.33-32 32s14.33 32 32 32h80ZM130 440h27.36c1.71 0 2.57-2.07 1.36-3.28l-6.09-6.09c5.79-5.79 9.37-13.79 9.37-22.63 0-17.67-14.33-32-32-32H50c-17.67 0-32 14.33-32 32s14.33 32 32 32h80ZM-30 760h27.35999c1.710002 0 2.5700179-2.07 1.36001-3.28l-6.09-6.09C-1.58 744.84 2 736.84 2 728c0-17.67-14.33-32-32-32h-80c-17.67 0-32 14.33-32 32s14.33 32 32 32h80ZM3 248c0-17.67-14.33-32-32-32h-80c-17.67 0-32 14.33-32 32s14.33 32 32 32H-1.64001c1.7100021 0 2.570018-2.07 1.360011-3.28L-6.37 270.63C-.580002 264.84 3 256.84 3 248ZM243 568v-80c0-17.67-14.33-32-32-32h-80c-17.67 0-32 14.33-32 32v80c0 17.67 14.33 32 32 32h107.36c1.71 0 2.57-2.07 1.36-3.28l-6.09-6.09c5.79-5.79 9.37-13.79 9.37-22.63ZM291 776h-80c-17.67 0-32 14.33-32 32v80c0 17.67 14.33 32 32 32h107.36c1.71 0 2.57-2.07 1.36-3.28l-6.09-6.09c5.79-5.79 9.37-13.79 9.37-22.63v-80c0-17.67-14.33-32-32-32ZM131 856H-29c-17.67 0-32 14.33-32 32v80c0 17.67 14.33 32 32 32h187.36c1.71 0 2.57-2.07 1.36-3.28l-6.09-6.09c5.79-5.79 9.37-13.79 9.37-22.63v-80c0-17.67-14.33-32-32-32ZM563 648v-80c0-17.67-14.33-32-32-32H371c-17.67 0-32 14.33-32 32v80c0 17.67 14.33 32 32 32h187.36c1.71 0 2.57-2.07 1.36-3.28l-6.09-6.09c5.79-5.79 9.37-13.79 9.37-22.63ZM51 600h27.36c1.71 0 2.57-2.07 1.36-3.28l-6.09-6.09C79.42 584.84 83 576.84 83 568c0-17.67-14.33-32-32-32h-160c-17.67 0-32 14.33-32 32s14.33 32 32 32H51ZM1090 696h-80c-17.67 0-32 14.33-32 32s14.33 32 32 32h107.36c1.71 0 2.57-2.07 1.36-3.28l-6.09-6.09c5.79-5.79 9.37-13.79 9.37-22.63 0-17.67-14.33-32-32-32ZM1410 776h-160c-17.67 0-32 14.33-32 32s14.33 32 32 32h187.36c1.71 0 2.57-2.07 1.36-3.28l-6.09-6.09c5.79-5.79 9.37-13.79 9.37-22.63 0-17.67-14.33-32-32-32ZM1202 248c0-17.67-14.33-32-32-32h-80c-17.67 0-32 14.33-32 32s14.33 32 32 32h107.36c1.71 0 2.57-2.07 1.36-3.28l-6.09-6.09c5.79-5.79 9.37-13.79 9.37-22.63ZM962 569c0-17.67-14.33-32-32-32h-80c-17.67 0-32 14.33-32 32 0 8.84 3.58 16.84 9.37 22.63l-6.09 6.09c-1.21 1.21-.35 3.28 1.36 3.28H930c17.67 0 32-14.33 32-32ZM421.28 36.72c-1.21 1.21-.35 3.28 1.36 3.28H530c17.67 0 32-14.33 32-32s-14.33-32-32-32h-80c-17.67 0-32 14.33-32 32 0 8.84 3.58 16.84 9.37 22.63l-6.09 6.09ZM130 120h27.36c1.71 0 2.57-2.07 1.36-3.28l-6.09-6.09C158.42 104.84 162 96.84 162 88c0-17.67-14.33-32-32-32H50c-17.67 0-32 14.33-32 32s14.33 32 32 32h80ZM370 200h27.36c1.71 0 2.57-2.07 1.36-3.28l-6.09-6.09c5.79-5.79 9.37-13.79 9.37-22.63 0-17.67-14.33-32-32-32h-80c-17.67 0-32 14.33-32 32s14.33 32 32 32h80ZM1218 488c0 8.84 3.58 16.84 9.37 22.63l-6.09 6.09c-1.21 1.21-.35 3.28 1.36 3.28H1330c17.67 0 32-14.33 32-32s-14.33-32-32-32h-80c-17.67 0-32 14.33-32 32ZM770 856h-80c-17.67 0-32 14.33-32 32 0 8.84 3.58 16.84 9.37 22.63l-6.09 6.09c-1.21 1.21-.35 3.28 1.36 3.28H770c17.67 0 32-14.33 32-32s-14.33-32-32-32ZM611 856H451c-17.67 0-32 14.33-32 32 0 8.84 3.58 16.84 9.37 22.63l-6.09 6.09c-1.21 1.21-.35 3.28 1.36 3.28H611c17.67 0 32-14.33 32-32s-14.33-32-32-32ZM1442 8c0-17.67-14.33-32-32-32h-80c-17.67 0-32 14.33-32 32s14.33 32 32 32h107.36c1.71 0 2.57-2.07 1.36-3.28l-6.09-6.09c5.79-5.79 9.37-13.79 9.37-22.63ZM658 88c0 17.67 14.33 32 32 32h107.36c1.71 0 2.57-2.07 1.36-3.28l-6.09-6.09C798.42 104.84 802 96.84 802 88c0-17.67-14.33-32-32-32h-80c-17.67 0-32 14.33-32 32ZM101.28 36.72c-1.21 1.21-.35 3.28 1.36 3.28H130c17.67 0 32-14.33 32-32s-14.33-32-32-32S98-9.67 98 8c0 8.84 3.58 16.84 9.37 22.63l-6.09 6.09Z"/></svg>
