<svg width="300" height="295" viewBox="0 0 300 295" fill="none" xmlns="http://www.w3.org/2000/svg">
<path d="M300 146.181C300 164.756 296.424 182.694 289.272 199.997C282.12 217.045 272.158 232.439 259.387 246.179V288.545H243.5H191.954C178.161 292.616 164.495 294.651 150.958 294.651C124.649 294.651 99.8724 287.781 76.6284 274.041C53.3843 260.046 34.7382 241.726 20.6897 219.08C6.89655 196.18 0 171.88 0 146.181C0 120.482 6.89655 96.4361 20.6897 74.0445C34.7382 51.3988 53.3843 33.46 76.6284 20.2287C99.8724 6.74288 124.649 0 150.958 0C177.011 0 201.533 6.74288 224.521 20.2287C247.51 33.46 265.773 51.2713 279.31 73.6629C293.103 96.0545 300 120.227 300 146.181ZM148.659 218.317C162.197 218.317 174.585 215.136 185.824 208.775C197.318 202.414 206.386 193.763 213.027 182.821C219.923 171.88 223.372 159.666 223.372 146.181C223.372 132.949 219.923 120.99 213.027 110.303C206.386 99.6166 197.318 91.3469 185.824 85.4947C174.33 79.388 161.558 76.3346 147.51 76.3346C134.227 76.3346 122.095 79.388 111.111 85.4947C100.383 91.3469 91.954 99.6166 85.8238 110.303C79.6935 120.736 76.6284 132.568 76.6284 145.799C76.6284 159.539 79.6935 172.007 85.8238 183.203C92.2096 194.144 100.766 202.795 111.494 209.157C122.478 215.263 134.866 218.317 148.659 218.317Z" fill="#FF865B"/>
<circle cx="150.5" cy="147.5" r="85.5" fill="#FF865B"/>
<path d="M260 295H146L284.122 211C264.965 253.833 308.378 295 260 295Z" fill="#FF865B"/>
<path d="M215.6 117L185.366 147L215.6 177M85 117L115.234 147L85 177" stroke="#091319" stroke-width="25" stroke-linecap="round" stroke-linejoin="round"/>
</svg>
